<svg width="1024" height="1024" viewBox="0 0 1024 1024" fill="none" xmlns="http://www.w3.org/2000/svg">
<rect width="1024" height="1024" fill="#003378"/>
<g clip-path="url(#clip0_82_406)">
<path d="M587.084 480.11H565.766V513.568C565.766 517.848 566.498 520.867 568.298 522.567C570 524.167 572.607 524.958 576.109 524.958H675.208V506.233H587.084V480.11ZM654.408 488.828H675.208V401.035H654.408V423.505H635.581V442.264H654.408V488.828ZM613.096 440.465L612.726 440.019C609.133 435.581 607.045 430.17 606.232 422.969C606.207 422.721 605.722 420.016 605.697 419.743H633.107V400.986H556.846V419.743H584.125C584.108 420.015 583.623 422.721 583.599 422.969C582.793 430.171 580.705 435.581 577.104 440.019L576.726 440.465C572.073 446.231 565.167 449.885 556.247 451.32V471.242C556.642 471.209 556.987 471.143 557.374 471.102C564.871 470.136 572.098 467.844 578.642 463.966C585.86 459.817 591.328 454.274 594.92 447.535C598.513 454.274 603.981 459.817 611.19 463.966C617.742 467.844 624.969 470.136 632.459 471.102C632.845 471.143 633.199 471.209 633.593 471.242V451.32C624.663 449.885 617.749 446.231 613.096 440.465ZM728.893 480.11H707.576V513.568C707.576 517.848 708.299 520.884 710.099 522.567C711.81 524.167 714.408 524.958 717.926 524.958H817V506.234H728.893V480.11ZM796.209 488.836H817V400.986H796.209V415.495H777.39V434.245H796.209V488.836ZM756.031 435.367C751.551 427.456 749.676 412.963 749.676 405.019V400.994H728.408C728.408 401.382 728.399 404.55 728.399 404.936C728.399 412.963 726.533 427.44 722.036 435.367C717.268 443.979 708.832 450.141 697.035 451.766V471.25C703.934 471.093 710.6 469.287 716.857 466.474C725.892 462.415 734.154 455.931 739.038 447.237C743.929 455.931 752.191 462.415 761.211 466.474C767.483 469.287 774.16 471.093 781.032 471.25V451.766C769.243 450.141 760.791 443.979 756.031 435.367Z" fill="white"/>
<path d="M440.85 460.303C451.316 460.303 457.128 461.789 457.284 468.816C457.35 472.677 454.735 477.164 451.899 479.366C445.503 484.324 439.88 484.852 409.856 484.852H261.725L290.343 364.953H240.851C237.546 364.953 236.305 365.902 235.318 369.845L208.188 482.229C203.082 504.567 214.567 525 240.218 525H308.167C325.374 525 348.41 506.151 357.757 488.737C358.267 487.781 358.596 487.162 358.982 486.362C358.982 486.362 359.18 486.122 359.237 486.469C359.237 486.485 359.246 486.485 359.246 486.485C357.758 492.746 352.554 514.87 351.698 518.475C350.605 523.177 353.046 524.958 355.299 524.958H428.403C490.4 524.958 514.597 495.369 516.727 459.842C517.91 439.88 505.321 426.961 469.707 426.961H442.355C432.629 426.961 422.665 423.752 422.665 415.833C422.665 407.897 433.483 401.009 448.175 401.009H514.745C514.745 401.009 520.566 377.624 521.717 372.732C523.155 366.578 521.314 364.797 516.833 364.797H434.544C386.754 364.797 365.304 396.868 365.304 419.742C365.304 442.642 383.695 460.27 431.133 460.27L440.85 460.303Z" fill="white"/>
<path d="M473.184 345H605.623L537.502 380.107C537.502 380.107 540.247 368.609 541.07 365.185C541.925 361.539 540.775 358.801 535.644 357.761C530.546 356.731 473.184 345 473.184 345Z" fill="#E6003E"/>
</g>
<path d="M755.644 654.112C759.633 658.827 763.713 662.181 767.884 664.176C772.054 666.171 776.044 667.168 779.852 667.168C786.47 667.168 791.638 665.672 795.356 662.68C799.073 659.688 800.932 655.88 800.932 651.256C800.932 648.536 799.98 646.315 798.076 644.592C796.262 642.779 793.996 641.373 791.276 640.376C788.556 639.288 784.657 637.973 779.58 636.432C772.598 634.347 766.932 632.352 762.58 630.448C758.318 628.453 754.601 625.552 751.428 621.744C748.345 617.936 746.804 612.904 746.804 606.648C746.804 601.208 748.436 596.357 751.7 592.096C754.964 587.835 759.225 584.525 764.484 582.168C769.833 579.811 775.409 578.632 781.212 578.632C793.996 578.632 804.604 583.755 813.036 594L801.068 603.52C798.076 599.893 795.038 597.173 791.956 595.36C788.964 593.547 785.382 592.64 781.212 592.64C776.044 592.64 771.737 594 768.292 596.72C764.846 599.44 763.124 602.749 763.124 606.648C763.124 609.368 764.076 611.68 765.98 613.584C767.974 615.488 770.422 617.075 773.324 618.344C776.316 619.613 780.305 621.019 785.292 622.56C792.001 624.645 797.486 626.685 801.748 628.68C806.009 630.584 809.636 633.395 812.628 637.112C815.71 640.739 817.252 645.453 817.252 651.256C817.252 656.877 815.62 661.955 812.356 666.488C809.182 671.021 804.74 674.603 799.028 677.232C793.316 679.861 786.924 681.176 779.852 681.176C774.049 681.176 767.974 679.997 761.628 677.64C755.281 675.192 749.252 670.568 743.54 663.768L755.644 654.112Z" fill="white"/>
<path d="M635.962 606.784V680.496H619.642V579.312H637.594L673.226 635.752L708.994 579.312H726.946V680.496H710.626V606.784L673.226 662.952L635.962 606.784Z" fill="white"/>
<path d="M575.983 680.496H561.295L536.271 605.016L513.151 680.496H498.327L465.415 579.312H482.551L505.671 653.568L527.431 579.448H544.975L567.415 653.568L587.815 579.312H604.951L575.983 680.496Z" fill="white"/>
<path d="M419.329 593.456H390.089V680.496H373.769V593.456H344.257V579.312H419.329V593.456Z" fill="white"/>
<path d="M328.105 579.312V680.496H311.785V579.312H328.105Z" fill="white"/>
<path d="M254.808 623.512L295.472 680.496H275.344L243.656 636.024L225.704 656.152V680.496H209.384V579.448H225.704V631.4L272.76 579.312H294.792L254.808 623.512Z" fill="white"/>
<defs>
<clipPath id="clip0_82_406">
<rect width="610" height="180" fill="white" transform="translate(207 345)"/>
</clipPath>
</defs>
</svg>
