<svg width="68" height="68" viewBox="0 0 68 68" fill="none" xmlns="http://www.w3.org/2000/svg">
<circle cx="34" cy="34" r="34" fill="#F1F1F1"/>
<path d="M23.7344 29.1685H40.0286V31.144H23.7344V29.1685Z" fill="#404040"/>
<path d="M23.7344 24.52H40.0286V27.4253H23.7344V24.52Z" fill="#404040"/>
<path d="M23.7344 36.606H40.0286V38.5815H23.7344V36.606Z" fill="#404040"/>
<path d="M23.7344 40.3247H40.0286V43.23H23.7344V40.3247Z" fill="#404040"/>
<path d="M42.7636 46.8616C42.7636 47.9016 41.9374 48.75 40.912 48.75H22.8516C21.829 48.75 21 47.9045 21 46.8616C21 45.8215 21.8262 44.9731 22.8516 44.9731H40.912C41.9346 44.9731 42.7636 45.8186 42.7636 46.8616Z" fill="#404040"/>
<path d="M42.7636 20.8884C42.7636 21.9285 41.9374 22.7769 40.912 22.7769H22.8516C21.829 22.7769 21 21.9314 21 20.8884C21 19.8484 21.8262 19 22.8516 19H40.912C41.9346 19 42.7636 19.8455 42.7636 20.8884Z" fill="#404040"/>
<path d="M46.4665 25.9727C46.4665 26.4538 46.0836 26.8442 45.6119 26.8442H44.5294C44.0582 26.8442 43.6748 27.2353 43.6748 27.7158V32.1318C43.6748 33.5734 42.5245 34.7466 41.111 34.7466H23.7344V33.0034H41.111C41.5822 33.0034 41.9656 32.6124 41.9656 32.1318V27.7158C41.9656 26.2742 43.1159 25.1011 44.5294 25.1011H45.6119C46.0836 25.1011 46.4665 25.4915 46.4665 25.9727Z" fill="#404040"/>
<g clip-path="url(#clip0_57_555)">
<ellipse cx="42.5" cy="43.5" rx="5.625" ry="5.625" fill="#404040"/>
<path d="M36.0056 47.2647C36.6763 48.4137 37.5861 49.3235 38.7351 49.9941C39.8844 50.6648 41.1389 51 42.4998 51C43.8605 51 45.1154 50.6648 46.2645 49.9941C47.4136 49.3236 48.3233 48.4138 48.994 47.2647C49.6648 46.1155 50 44.8606 50 43.5C50 42.1393 49.6647 40.8846 48.9941 39.7353C48.3235 38.5863 47.4137 37.6766 46.2646 37.0058C45.1154 36.3352 43.8606 36 42.4999 36C41.1392 36 39.8843 36.3352 38.7351 37.0058C37.5861 37.6763 36.6764 38.5863 36.0058 39.7353C35.3352 40.8845 35 42.1394 35 43.5C35 44.8607 35.3352 46.1157 36.0056 47.2647ZM37.4999 42.875C37.4999 42.7057 37.5618 42.5591 37.6854 42.4356C37.8092 42.3119 37.9555 42.2498 38.1248 42.2498L43.0272 42.2498L41.1815 40.4042C41.0642 40.287 41.0057 40.1407 41.0057 39.9647C41.0057 39.7889 41.0642 39.6426 41.1815 39.5253L42.0702 38.6367C42.1874 38.5196 42.334 38.4608 42.5097 38.4608C42.6854 38.4608 42.8319 38.5196 42.9491 38.6367L46.4843 42.1719L47.3729 43.0606C47.4901 43.1779 47.5488 43.3242 47.5488 43.5C47.5488 43.6758 47.4902 43.8222 47.3729 43.9394L46.4843 44.8281L42.9491 48.3634C42.8319 48.4805 42.6855 48.5391 42.5097 48.5391C42.3339 48.5391 42.1874 48.4806 42.0702 48.3634L41.1815 47.4747C41.0578 47.351 40.9959 47.2044 40.9959 47.0351C40.9959 46.8659 41.0578 46.7194 41.1815 46.5957L43.0272 44.75L38.1248 44.75C37.9555 44.75 37.8092 44.6882 37.6853 44.5644C37.5617 44.4408 37.4999 44.2943 37.4999 44.125L37.4999 42.875Z" fill="#E61845"/>
</g>
<defs>
<clipPath id="clip0_57_555">
<rect width="16" height="15" fill="white" transform="translate(51 51) rotate(-180)"/>
</clipPath>
</defs>
</svg>
