<svg width="68" height="68" viewBox="0 0 68 68" fill="none" xmlns="http://www.w3.org/2000/svg">
<circle cx="34" cy="34" r="34" fill="#F1F1F1"/>
<path d="M17 33.7427V47.7544C17 48.3045 17.446 48.7505 17.9961 48.7505H35.2534V32.7466H17.9961C17.446 32.7466 17 33.1926 17 33.7427ZM30.4971 36.2495C30.4971 36.7996 30.0511 37.2456 29.501 37.2456H22.7524C22.2023 37.2456 21.7563 36.7996 21.7563 36.2495C21.7563 35.6994 22.2023 35.2534 22.7524 35.2534H29.501C30.0511 35.2534 30.4971 35.6994 30.4971 36.2495Z" fill="#404040"/>
<path d="M37.2456 37.2456V48.7505H50.0039C50.554 48.7505 51 48.3045 51 47.7544V38.2417C51 37.6916 50.554 37.2456 50.0039 37.2456H37.2456ZM46.6196 41.7446H41.626C41.0759 41.7446 40.6299 41.2986 40.6299 40.7485C40.6299 40.1984 41.0759 39.7524 41.626 39.7524H46.6196C47.1698 39.7524 47.6157 40.1984 47.6157 40.7485C47.6157 41.2986 47.1698 41.7446 46.6196 41.7446Z" fill="#404040"/>
<path d="M23.7485 30.7544H35.2534V20.2456C35.2534 19.6955 34.8074 19.2495 34.2573 19.2495H24.7446C24.1945 19.2495 23.7485 19.6955 23.7485 20.2456V30.7544ZM27.2515 21.7563H31.7505C32.3006 21.7563 32.7466 22.2023 32.7466 22.7524C32.7466 23.3026 32.3006 23.7485 31.7505 23.7485H27.2515C26.7014 23.7485 26.2554 23.3026 26.2554 22.7524C26.2554 22.2023 26.7014 21.7563 27.2515 21.7563Z" fill="#E61845"/>
<path d="M47.7544 23.7485H38.2417C37.6916 23.7485 37.2456 24.1945 37.2456 24.7446V35.2534H48.7505V24.7446C48.7505 24.1945 48.3045 23.7485 47.7544 23.7485ZM45.2476 28.2476H40.7485C40.1984 28.2476 39.7524 27.8016 39.7524 27.2515C39.7524 26.7014 40.1984 26.2554 40.7485 26.2554H45.2476C45.7977 26.2554 46.2437 26.7014 46.2437 27.2515C46.2437 27.8016 45.7977 28.2476 45.2476 28.2476Z" fill="#404040"/>
</svg>
