<svg width="68" height="68" viewBox="0 0 68 68" fill="none" xmlns="http://www.w3.org/2000/svg">
<circle cx="34" cy="34" r="34" fill="#F1F1F1"/>
<path d="M21.7601 50.3H39.1201C36.0401 48.62 33.9401 45.4 33.9401 41.62C33.9401 36.16 38.4201 31.68 43.8801 31.68H44.0201V20.34C44.0201 18.38 42.3401 16.7 40.3801 16.7H21.7601C19.8001 16.7 18.1201 18.38 18.1201 20.34V46.66C18.1201 48.62 19.6601 50.3 21.7601 50.3ZM24.9801 22.3H37.0201C37.8601 22.3 38.4201 23 38.4201 23.7C38.4201 24.54 37.8601 25.1 37.0201 25.1H24.9801C24.1401 25.1 23.5801 24.54 23.5801 23.7C23.5801 23 24.2801 22.3 24.9801 22.3ZM24.9801 28.88H32.8201C33.6601 28.88 34.2201 29.58 34.2201 30.28C34.2201 31.12 33.6601 31.68 32.8201 31.68H24.9801C24.1401 31.68 23.5801 31.12 23.5801 30.28C23.5801 29.44 24.2801 28.88 24.9801 28.88Z" fill="#404040"/>
<path d="M43.8802 34.62C39.9602 34.62 36.7402 37.84 36.7402 41.76C36.7402 45.68 39.9602 48.9 43.8802 48.9C47.8002 48.9 51.0202 45.68 51.0202 41.76C51.0202 37.84 47.8002 34.62 43.8802 34.62ZM47.3802 41.06L43.8802 44.42C43.6002 44.7 43.3202 44.84 42.9002 44.84C42.4802 44.84 42.2002 44.7 41.9202 44.42L40.2402 42.6C39.6802 42.04 39.6802 41.2 40.3802 40.64C40.9402 40.08 41.7802 40.08 42.3402 40.64L43.0402 41.48L45.5602 39.1C46.1202 38.54 46.9602 38.54 47.5202 39.1C47.9402 39.52 47.9402 40.5 47.3802 41.06Z" fill="#E61845"/>
</svg>
