<svg width="68" height="68" viewBox="0 0 68 68" fill="none" xmlns="http://www.w3.org/2000/svg">
<circle cx="34" cy="34" r="34" fill="#F1F1F1"/>
<g clip-path="url(#clip0_46_3180)">
<path d="M50.5275 27.4946L34.1212 16.1925C33.7479 15.9358 33.255 15.9358 32.8802 16.1925L16.474 27.4946C16.1765 27.6988 16 28.0356 16 28.3958V49.5417C16 50.3467 16.6533 51 17.4583 51H20.375V33.5C20.375 32.695 21.0283 32.0417 21.8333 32.0417H45.1667C45.9717 32.0417 46.625 32.695 46.625 33.5V51H49.5417C50.3467 51 51 50.3467 51 49.5417V28.3958C51 28.0356 50.8235 27.6988 50.5275 27.4946Z" fill="#404040"/>
<path d="M29.4897 43.7083V44.8021C29.4897 45.4058 28.9997 45.8958 28.396 45.8958C27.7922 45.8958 27.3022 45.4058 27.3022 44.8021V43.7083H24.7502C24.3477 43.7083 24.021 44.035 24.021 44.4375V50.2708C24.021 50.6733 24.3477 51 24.7502 51H32.0418C32.4443 51 32.771 50.6733 32.771 50.2708V44.4375C32.771 44.035 32.4443 43.7083 32.0418 43.7083H29.4897Z" fill="#E61845"/>
<path d="M39.6978 43.7083V44.8021C39.6978 45.4058 39.2078 45.8958 38.604 45.8958C38.0003 45.8958 37.5103 45.4058 37.5103 44.8021V43.7083H34.9582C34.5557 43.7083 34.229 44.035 34.229 44.4375V50.2708C34.229 50.6733 34.5557 51 34.9582 51H42.2498C42.6523 51 42.979 50.6733 42.979 50.2708V44.4375C42.979 44.035 42.6523 43.7083 42.2498 43.7083H39.6978Z" fill="#E61845"/>
<path d="M34.5938 34.9583V36.0521C34.5938 36.6558 34.1038 37.1458 33.5 37.1458C32.8963 37.1458 32.4063 36.6558 32.4063 36.0521V34.9583H29.8542C29.4517 34.9583 29.125 35.285 29.125 35.6875V41.5208C29.125 41.9233 29.4517 42.25 29.8542 42.25H37.1458C37.5483 42.25 37.875 41.9233 37.875 41.5208V35.6875C37.875 35.285 37.5483 34.9583 37.1458 34.9583H34.5938Z" fill="#E61845"/>
</g>
<defs>
<clipPath id="clip0_46_3180">
<rect width="35" height="35" fill="white" transform="translate(16 16)"/>
</clipPath>
</defs>
</svg>
