<svg width="68" height="68" viewBox="0 0 68 68" fill="none" xmlns="http://www.w3.org/2000/svg">
<circle cx="34" cy="34" r="34" fill="#F1F1F1"/>
<g clip-path="url(#clip0_56_490)">
<path d="M32.5833 36.4792C32.5833 35.8941 32.1045 35.4167 31.5208 35.4167H26.2083V39.6667C26.2083 40.4487 25.5737 41.0834 24.7917 41.0834C24.0097 41.0834 23.375 40.4487 23.375 39.6667V35.4167H18.0625C17.4774 35.4167 17 35.8941 17 36.4792V49.9375C17 50.5226 17.4774 51 18.0625 51H31.5208C32.1045 51 32.5833 50.5226 32.5833 49.9375V36.4792Z" fill="#404040"/>
<path d="M50.9998 36.4792C50.9998 35.8941 50.521 35.4167 49.9373 35.4167H44.6248V39.6667C44.6248 40.4487 43.9902 41.0834 43.2082 41.0834C42.4262 41.0834 41.7915 40.4487 41.7915 39.6667V35.4167H36.479C35.8939 35.4167 35.4165 35.8941 35.4165 36.4792V49.9375C35.4165 50.5226 35.8939 51 36.479 51H49.9373C50.521 51 50.9998 50.5226 50.9998 49.9375V36.4792Z" fill="#404040"/>
<path d="M41.7918 18.0625C41.7918 17.4788 41.313 17 40.7293 17H35.4168V21.25C35.4168 22.032 34.7822 22.6667 34.0002 22.6667C33.2182 22.6667 32.5835 22.032 32.5835 21.25V17H27.271C26.6859 17 26.2085 17.4788 26.2085 18.0625V31.5208C26.2085 32.1059 26.6859 32.5833 27.271 32.5833H40.7293C41.313 32.5833 41.7918 32.1059 41.7918 31.5208V18.0625Z" fill="#E61845"/>
</g>
<defs>
<clipPath id="clip0_56_490">
<rect width="34" height="34" fill="white" transform="translate(17 17)"/>
</clipPath>
</defs>
</svg>
