<svg width="68" height="68" viewBox="0 0 68 68" fill="none" xmlns="http://www.w3.org/2000/svg">
<circle cx="34" cy="34" r="34" fill="#F1F1F1"/>
<path d="M23.7344 29.1685H40.0286V31.144H23.7344V29.1685Z" fill="#404040"/>
<path d="M23.7344 24.52H40.0286V27.4253H23.7344V24.52Z" fill="#404040"/>
<path d="M23.7344 36.606H40.0286V38.5815H23.7344V36.606Z" fill="#404040"/>
<path d="M23.7344 40.3247H40.0286V43.23H23.7344V40.3247Z" fill="#404040"/>
<path d="M42.7636 46.8616C42.7636 47.9016 41.9374 48.75 40.912 48.75H22.8516C21.829 48.75 21 47.9045 21 46.8616C21 45.8215 21.8262 44.9731 22.8516 44.9731H40.912C41.9346 44.9731 42.7636 45.8186 42.7636 46.8616Z" fill="#404040"/>
<path d="M42.7636 20.8884C42.7636 21.9285 41.9374 22.7769 40.912 22.7769H22.8516C21.829 22.7769 21 21.9314 21 20.8884C21 19.8484 21.8262 19 22.8516 19H40.912C41.9346 19 42.7636 19.8455 42.7636 20.8884Z" fill="#404040"/>
<path d="M46.4665 25.9727C46.4665 26.4538 46.0836 26.8442 45.6119 26.8442H44.5294C44.0582 26.8442 43.6748 27.2353 43.6748 27.7158V32.1318C43.6748 33.5734 42.5245 34.7466 41.111 34.7466H23.7344V33.0034H41.111C41.5822 33.0034 41.9656 32.6124 41.9656 32.1318V27.7158C41.9656 26.2742 43.1159 25.1011 44.5294 25.1011H45.6119C46.0836 25.1011 46.4665 25.4915 46.4665 25.9727Z" fill="#404040"/>
<g clip-path="url(#clip0_57_542)">
<ellipse cx="43.5002" cy="43.5056" rx="5.625" ry="5.625" transform="rotate(-179.355 43.5002 43.5056)" fill="#404040"/>
<path d="M50.0364 39.8142C49.3787 38.6577 48.4793 37.7377 47.3378 37.0542C46.1962 36.3707 44.9455 36.0214 43.5847 36.0061C42.2241 35.9908 40.9655 36.3119 39.8089 36.9695C38.6523 37.6271 37.7324 38.5266 37.0488 39.6681C36.3652 40.8096 36.0159 42.0607 36.0006 43.4212C35.9853 44.7818 36.3065 46.0403 36.9641 47.197C37.6217 48.3535 38.5212 49.2734 39.6627 49.957C40.8043 50.6405 42.0553 50.9898 43.4158 51.0051C44.7764 51.0204 46.0351 50.6993 47.1917 50.0417C48.3482 49.3842 49.2681 48.4845 49.9516 47.3431C50.635 46.2015 50.9843 44.9505 50.9996 43.59C51.015 42.2293 50.6938 40.9706 50.0364 39.8142ZM48.4928 44.1868C48.4909 44.356 48.4274 44.502 48.3025 44.6241C48.1772 44.7463 48.0303 44.8068 47.861 44.8049L42.9589 44.7498L44.7837 46.6161C44.8997 46.7345 44.9565 46.8815 44.9546 47.0574C44.9526 47.2332 44.8924 47.3789 44.7738 47.4949L43.8752 48.3735C43.7567 48.4892 43.6094 48.5463 43.4337 48.5443C43.2581 48.5424 43.1122 48.482 42.9963 48.3636L39.5011 44.7887L38.6226 43.8901C38.5067 43.7715 38.4497 43.6245 38.4516 43.4488C38.4536 43.273 38.5139 43.1273 38.6325 43.0114L39.531 42.1328L43.1057 38.6375C43.2243 38.5216 43.3713 38.4647 43.5471 38.4667C43.7229 38.4687 43.8687 38.5288 43.9846 38.6473L44.8632 39.546C44.9855 39.6711 45.0458 39.8183 45.0439 39.9876C45.042 40.1568 44.9784 40.3026 44.8533 40.4249L42.9871 42.2497L47.8891 42.3048C48.0584 42.3067 48.204 42.3703 48.3265 42.4954C48.4486 42.6204 48.5088 42.7676 48.5069 42.9369L48.4928 44.1868Z" fill="#E61845"/>
</g>
<defs>
<clipPath id="clip0_57_542">
<rect width="16" height="15" fill="white" transform="translate(35.085 35.9105) rotate(0.64451)"/>
</clipPath>
</defs>
</svg>
