<svg width="68" height="68" viewBox="0 0 68 68" fill="none" xmlns="http://www.w3.org/2000/svg">
<circle cx="34" cy="34" r="34" fill="#F1F1F1"/>
<g clip-path="url(#clip0_57_529)">
<path d="M25.6399 26.0417L40.6044 19.6261L34.4082 17.0806C34.1465 16.9731 33.853 16.9731 33.5913 17.0806L18.709 23.1944L25.6399 26.0417Z" fill="#E61845"/>
<path d="M43.39 20.7702L28.4209 27.184L34.0002 29.476L49.291 23.1944L43.39 20.7702Z" fill="#E61845"/>
<path d="M32.9249 31.3584L26.8693 28.8707V33.5809C26.8693 34.1745 26.388 34.6557 25.7945 34.6557C25.2009 34.6557 24.7197 34.1745 24.7197 33.5809V27.9876L17.7441 25.122V44.0431C17.7441 44.479 18.0073 44.8717 18.4105 45.0373L32.9249 51V31.3584Z" fill="#404040"/>
<path d="M35.0747 31.3584V51L49.5891 45.0373C49.9923 44.8717 50.2555 44.479 50.2555 44.0431C50.2555 43.3199 50.2555 25.9137 50.2555 25.122L35.0747 31.3584Z" fill="#404040"/>
</g>
<defs>
<clipPath id="clip0_57_529">
<rect width="34" height="34" fill="white" transform="translate(17 17)"/>
</clipPath>
</defs>
</svg>
