<svg width="68" height="68" viewBox="0 0 68 68" fill="none" xmlns="http://www.w3.org/2000/svg">
<circle cx="34" cy="34" r="34" fill="#F1F1F1"/>
<g clip-path="url(#clip0_60_702)">
<path d="M29.6478 17.1657L19.8197 19.822C19.6227 19.8754 19.4487 19.9921 19.3246 20.1542C19.2004 20.3162 19.1331 20.5146 19.1328 20.7187V47.2812C19.1328 47.4856 19.2001 47.6842 19.3242 47.8465C19.4484 48.0087 19.6225 48.1256 19.8197 48.1791L29.6478 50.8353C29.7857 50.8726 29.9303 50.8776 30.0704 50.85C30.2106 50.8224 30.3425 50.7628 30.4558 50.676C30.5692 50.5892 30.6611 50.4774 30.7243 50.3493C30.7875 50.2212 30.8204 50.0803 30.8203 49.9375V18.0625C30.8202 17.9198 30.7872 17.779 30.724 17.651C30.6607 17.5231 30.5688 17.4114 30.4554 17.3247C30.3421 17.238 30.2102 17.1786 30.0702 17.151C29.9301 17.1234 29.7856 17.1285 29.6478 17.1657Z" fill="#404040"/>
<path d="M35.0703 35.2219V32.7781C35.0712 32.0457 35.3625 31.3436 35.8804 30.8257C36.3982 30.3078 37.1004 30.0165 37.8328 30.0156H42.2422V20.7188C42.2422 20.4722 42.1442 20.2357 41.9699 20.0614C41.7955 19.887 41.5591 19.7891 41.3125 19.7891H32.6797V48.2109H41.3125C41.5591 48.2109 41.7955 48.113 41.9699 47.9386C42.1442 47.7643 42.2422 47.5278 42.2422 47.2812V37.9844H37.8328C37.1004 37.9835 36.3982 37.6922 35.8804 37.1743C35.3625 36.6564 35.0712 35.9543 35.0703 35.2219Z" fill="#404040"/>
<path d="M52.575 33.4045L46.9916 29.1125C46.8804 29.0268 46.7474 28.974 46.6077 28.9601C46.468 28.9461 46.3272 28.9716 46.2013 29.0336C46.0754 29.0956 45.9693 29.1917 45.8952 29.3109C45.8211 29.4301 45.7818 29.5677 45.7819 29.708V31.875H37.8328C37.5933 31.875 37.3636 31.9701 37.1942 32.1395C37.0248 32.3089 36.9297 32.5386 36.9297 32.7781V35.2219C36.9297 35.4614 37.0248 35.6911 37.1942 35.8605C37.3636 36.0298 37.5933 36.125 37.8328 36.125H45.7819V38.2941C45.7824 38.4342 45.8221 38.5714 45.8964 38.6901C45.9707 38.8089 46.0768 38.9045 46.2025 38.9663C46.3283 39.028 46.4689 39.0533 46.6083 39.0394C46.7477 39.0255 46.8805 38.9728 46.9916 38.8875L52.575 34.5955C52.6663 34.5254 52.7402 34.4352 52.791 34.3319C52.8419 34.2287 52.8683 34.1151 52.8683 34C52.8683 33.8849 52.8419 33.7713 52.791 33.6681C52.7402 33.5648 52.6663 33.4746 52.575 33.4045Z" fill="#E61845"/>
</g>
<defs>
<clipPath id="clip0_60_702">
<rect width="34" height="34" fill="white" transform="translate(19 17)"/>
</clipPath>
</defs>
</svg>
