<svg width="20" height="20" viewBox="0 0 20 20" fill="none" xmlns="http://www.w3.org/2000/svg">
<rect width="20" height="20" rx="10" fill="#1B1E1E"/>
<path d="M15.8332 18.3333V16.6667C15.8332 15.7826 15.5259 14.9348 14.9789 14.3097C14.4319 13.6845 13.6901 13.3333 12.9165 13.3333H7.08317C6.30962 13.3333 5.56776 13.6845 5.02078 14.3097C4.47379 14.9348 4.1665 15.7826 4.1665 16.6667V18.3333" stroke="white" stroke-linecap="round" stroke-linejoin="round"/>
<path d="M10.0002 10.8333C11.611 10.8333 12.9168 9.5275 12.9168 7.91667C12.9168 6.30584 11.611 5 10.0002 5C8.38933 5 7.0835 6.30584 7.0835 7.91667C7.0835 9.5275 8.38933 10.8333 10.0002 10.8333Z" stroke="white" stroke-linecap="round" stroke-linejoin="round"/>
</svg>
